<svg xmlns="http://www.w3.org/2000/svg" width="62.919" height="67.637" viewBox="0 0 62.919 67.637">
  <path id="icons8_Plus_Key" d="M18.591,4A13.551,13.551,0,0,0,5.064,17.527V58.111A13.551,13.551,0,0,0,18.591,71.637H54.456A13.551,13.551,0,0,0,67.983,58.111V17.527A13.551,13.551,0,0,0,54.456,4Zm0,3.146H54.456A10.358,10.358,0,0,1,64.837,17.527V47.1A10.358,10.358,0,0,1,54.456,57.481H18.591A10.358,10.358,0,0,1,8.21,47.1V17.527A10.358,10.358,0,0,1,18.591,7.146ZM34.951,19.73V30.74H23.94v3.146H34.951V44.9H38.1V33.886H49.107V30.74H38.1V19.73ZM8.21,55.754a13.507,13.507,0,0,0,10.381,4.873H54.456a13.508,13.508,0,0,0,10.381-4.873v2.356A10.358,10.358,0,0,1,54.456,68.491H18.591A10.358,10.358,0,0,1,8.21,58.111Z" transform="translate(-5.064 -4)" fill="#fff"/>
</svg>
