<svg xmlns="http://www.w3.org/2000/svg" width="49.68" height="51.199" viewBox="0 0 49.68 51.199">
  <path id="icons8_notification" d="M22.739,4.018C14.908,4.4,8.907,11.343,8.907,19.381v7.267L6.339,31.98l-.013.029A3.54,3.54,0,0,0,9.393,37h8.233a5.931,5.931,0,0,0,5.813,6,5.931,5.931,0,0,0,5.813-6h8.231a3.541,3.541,0,0,0,3.069-4.99l-.013-.029-2.568-5.332V19A14.771,14.771,0,0,0,22.739,4.018Zm.136,3A11.771,11.771,0,0,1,35.066,19v8a1.54,1.54,0,0,0,.151.668l2.706,5.621a.463.463,0,0,1-.439.711H9.393a.463.463,0,0,1-.437-.711v0l2.706-5.619A1.54,1.54,0,0,0,11.813,27V19.381C11.813,12.88,16.638,7.317,22.876,7.014ZM20.533,37h5.813a2.908,2.908,0,1,1-5.813,0Z" transform="translate(-7.209 16.967) rotate(-30)" fill="#fff"/>
</svg>
