<svg xmlns="http://www.w3.org/2000/svg" width="60.721" height="60.721" viewBox="0 0 60.721 60.721">
  <path id="icons8_wallet_1" d="M12.084,1A11.1,11.1,0,0,0,1,12.084V50.637A11.1,11.1,0,0,0,12.084,61.721H50.637A11.1,11.1,0,0,0,61.721,50.637v-5.3a1.446,1.446,0,0,0-2.891,0v5.3a8.2,8.2,0,0,1-8.192,8.192H12.084a8.2,8.2,0,0,1-8.192-8.192V12.084a8.2,8.2,0,0,1,8.192-8.192H50.637a8.2,8.2,0,0,1,8.192,8.192v5.3a1.446,1.446,0,1,0,2.891,0v-5.3A11.1,11.1,0,0,0,50.637,1ZM53.046,22.686a8.674,8.674,0,1,0,0,17.349h7.229a1.444,1.444,0,0,0,1.446-1.446V24.132a1.444,1.444,0,0,0-1.446-1.446Zm0,2.891h5.783V37.143H53.046a5.783,5.783,0,0,1,0-11.566Z" transform="translate(-1 -1)" fill="#fff"/>
</svg>
